<svg width="23" height="15" viewBox="0 0 23 15" fill="none" xmlns="http://www.w3.org/2000/svg">
<path d="M19.0852 8.48525C18.7134 8.01567 18.8198 7.80675 19.0852 7.387C19.09 7.38221 22.1595 3.14062 22.4758 1.70216L22.4777 1.70121C22.6349 1.177 22.4777 0.791748 21.7178 0.791748H19.2031C18.5629 0.791748 18.2677 1.12237 18.1096 1.49229C18.1096 1.49229 16.8293 4.55704 15.018 6.54367C14.4335 7.11771 14.1632 7.30171 13.8441 7.30171C13.6869 7.30171 13.4425 7.11771 13.4425 6.5935V1.70121C13.4425 1.07254 13.2633 0.791748 12.7334 0.791748H8.77929C8.37775 0.791748 8.13913 1.085 8.13913 1.35812C8.13913 1.95421 9.04475 2.09125 9.13867 3.76833V7.40712C9.13867 8.20446 8.99396 8.35108 8.67292 8.35108C7.81808 8.35108 5.74329 5.27387 4.51375 1.752C4.26554 1.06871 4.02308 0.792706 3.37813 0.792706H0.8625C0.144708 0.792706 0 1.12333 0 1.49325C0 2.14683 0.854833 5.39654 3.97517 9.68987C6.05475 12.6205 8.98342 14.2084 11.6476 14.2084C13.249 14.2084 13.4445 13.8558 13.4445 13.2491C13.4445 10.4489 13.2998 10.1844 14.1019 10.1844C14.4737 10.1844 15.1139 10.3684 16.6089 11.7819C18.3176 13.458 18.5984 14.2084 19.5548 14.2084H22.0695C22.7863 14.2084 23.1495 13.8557 22.9406 13.16C22.4624 11.6966 19.2309 8.6865 19.0852 8.48525Z" fill="#4C858B"/>
</svg>
