<svg width="56" height="56" viewBox="0 0 56 56" fill="none" xmlns="http://www.w3.org/2000/svg">
<circle cx="28" cy="28" r="27.5" stroke="#E5E5E5"/>
<g clip-path="url(#clip0_403_8)">
<path d="M39.6437 24.6749C39.3268 24.2773 38.8513 24.0492 38.3392 24.0492H33.7171L31.2108 18.3101C31.0554 17.9543 30.6409 17.7917 30.285 17.9472C29.9291 18.1026 29.7666 18.5171 29.9221 18.8729L32.1826 24.0492H23.8174L26.0779 18.8729C26.2333 18.5171 26.0709 18.1026 25.715 17.9472C25.3592 17.7917 24.9446 17.9542 24.7893 18.3101L22.2829 24.0492H17.6608C17.1487 24.0492 16.6732 24.2773 16.3563 24.6749C16.0452 25.0653 15.9304 25.5671 16.0413 26.0519L18.5096 36.8332C18.682 37.586 19.348 38.1117 20.1291 38.1117H35.8709C36.6521 38.1117 37.318 37.586 37.4904 36.8332L39.9587 26.0519C40.0696 25.5671 39.9548 25.0652 39.6437 24.6749ZM35.8709 36.7054H20.1291C20.0097 36.7054 19.9052 36.6271 19.8805 36.5192L17.4122 25.7381C17.3928 25.6535 17.4253 25.5898 17.456 25.5513C17.4845 25.5155 17.5491 25.4555 17.6608 25.4555H21.6688L21.4846 25.8772C21.3292 26.2331 21.4917 26.6475 21.8476 26.803C21.9392 26.843 22.0346 26.8619 22.1286 26.8619C22.3996 26.8619 22.6579 26.7043 22.7733 26.4401L23.2033 25.4556H32.7968L33.2268 26.4401C33.3422 26.7044 33.6005 26.8619 33.8715 26.8619C33.9655 26.8619 34.0609 26.843 34.1525 26.803C34.5084 26.6476 34.6709 26.2331 34.5155 25.8772L34.3313 25.4555H38.3393C38.451 25.4555 38.5156 25.5155 38.5441 25.5513C38.5748 25.5899 38.6073 25.6535 38.5879 25.738L36.1196 36.5193C36.0949 36.6271 35.9903 36.7054 35.8709 36.7054Z" fill="black"/>
<path d="M23.7812 28.5024C23.3929 28.5024 23.0781 28.8173 23.0781 29.2056V34.3618C23.0781 34.7501 23.3929 35.0649 23.7812 35.0649C24.1696 35.0649 24.4844 34.7501 24.4844 34.3618V29.2056C24.4844 28.8173 24.1696 28.5024 23.7812 28.5024Z" fill="black"/>
<path d="M28 28.5024C27.6117 28.5024 27.2969 28.8173 27.2969 29.2056V34.3618C27.2969 34.7501 27.6117 35.0649 28 35.0649C28.3883 35.0649 28.7031 34.7501 28.7031 34.3618V29.2056C28.7031 28.8173 28.3883 28.5024 28 28.5024Z" fill="black"/>
<path d="M32.2188 28.5024C31.8304 28.5024 31.5156 28.8173 31.5156 29.2056V34.3618C31.5156 34.7501 31.8304 35.0649 32.2188 35.0649C32.6071 35.0649 32.9219 34.7501 32.9219 34.3618V29.2056C32.9218 28.8173 32.6071 28.5024 32.2188 28.5024Z" fill="black"/>
</g>
<defs>
<clipPath id="clip0_403_8">
<rect width="24" height="24" fill="white" transform="translate(16 16)"/>
</clipPath>
</defs>
</svg>
